<svg xmlns="http://www.w3.org/2000/svg" width="900" height="520" viewBox="0 0 900 520">
<rect width="100%" height="100%" fill="white"/>
<text x="450.0" y="25" text-anchor="middle" font-family="sans-serif" font-size="18">Leaf occupancy vs geometry</text>
<line x1="80" y1="45" x2="80" y2="440" stroke="#222"/>
<line x1="80" y1="440" x2="870" y2="440" stroke="#222"/>
<text x="450.0" y="500" text-anchor="middle" font-family="sans-serif" font-size="13">geometry</text>
<text x="18" y="260.0" text-anchor="middle" transform="rotate(-90 18 260.0)" font-family="sans-serif" font-size="13">median occupancy</text>
<line x1="76" y1="440.0" x2="80" y2="440.0" stroke="#222"/>
<text x="72" y="444.0" text-anchor="end" font-family="sans-serif" font-size="11">0</text>
<line x1="76" y1="361.0" x2="80" y2="361.0" stroke="#222"/>
<text x="72" y="365.0" text-anchor="end" font-family="sans-serif" font-size="11">6</text>
<line x1="76" y1="282.0" x2="80" y2="282.0" stroke="#222"/>
<text x="72" y="286.0" text-anchor="end" font-family="sans-serif" font-size="11">11</text>
<line x1="76" y1="203.0" x2="80" y2="203.0" stroke="#222"/>
<text x="72" y="207.0" text-anchor="end" font-family="sans-serif" font-size="11">17</text>
<line x1="76" y1="124.0" x2="80" y2="124.0" stroke="#222"/>
<text x="72" y="128.0" text-anchor="end" font-family="sans-serif" font-size="11">22</text>
<line x1="76" y1="45.0" x2="80" y2="45.0" stroke="#222"/>
<text x="72" y="49.0" text-anchor="end" font-family="sans-serif" font-size="11">28</text>
<line x1="475.0" y1="440" x2="475.0" y2="444" stroke="#222"/>
<text x="475.0" y="462" text-anchor="middle" font-family="sans-serif" font-size="11">fanout_f32_l16</text>
<rect x="198.5" y="80.9" width="137.2" height="359.1" fill="#1f77b4"/>
<rect x="90" y="53" width="12" height="12" fill="#1f77b4"/>
<text x="108" y="63" font-family="sans-serif" font-size="12">maximum</text>
<rect x="336.8" y="382.5" width="137.2" height="57.5" fill="#d62728"/>
<rect x="90" y="71" width="12" height="12" fill="#d62728"/>
<text x="108" y="81" font-family="sans-serif" font-size="12">p50</text>
<rect x="475.0" y="325.1" width="137.2" height="114.9" fill="#2ca02c"/>
<rect x="90" y="89" width="12" height="12" fill="#2ca02c"/>
<text x="108" y="99" font-family="sans-serif" font-size="12">p95</text>
<rect x="613.2" y="282.0" width="137.2" height="158.0" fill="#9467bd"/>
<rect x="90" y="107" width="12" height="12" fill="#9467bd"/>
<text x="108" y="117" font-family="sans-serif" font-size="12">p99</text>
</svg>
