<svg xmlns="http://www.w3.org/2000/svg" width="900" height="520" viewBox="0 0 900 520">
<rect width="100%" height="100%" fill="white"/>
<text x="450.0" y="25" text-anchor="middle" font-family="sans-serif" font-size="18">Recovery breakdown vs dataset size</text>
<line x1="80" y1="45" x2="80" y2="440" stroke="#222"/>
<line x1="80" y1="440" x2="870" y2="440" stroke="#222"/>
<text x="450.0" y="500" text-anchor="middle" font-family="sans-serif" font-size="13">tuple_count</text>
<text x="18" y="260.0" text-anchor="middle" transform="rotate(-90 18 260.0)" font-family="sans-serif" font-size="13">median ms</text>
<line x1="76" y1="440.0" x2="80" y2="440.0" stroke="#222"/>
<text x="72" y="444.0" text-anchor="end" font-family="sans-serif" font-size="11">0</text>
<line x1="76" y1="361.0" x2="80" y2="361.0" stroke="#222"/>
<text x="72" y="365.0" text-anchor="end" font-family="sans-serif" font-size="11">28</text>
<line x1="76" y1="282.0" x2="80" y2="282.0" stroke="#222"/>
<text x="72" y="286.0" text-anchor="end" font-family="sans-serif" font-size="11">56</text>
<line x1="76" y1="203.0" x2="80" y2="203.0" stroke="#222"/>
<text x="72" y="207.0" text-anchor="end" font-family="sans-serif" font-size="11">84</text>
<line x1="76" y1="124.0" x2="80" y2="124.0" stroke="#222"/>
<text x="72" y="128.0" text-anchor="end" font-family="sans-serif" font-size="11">112</text>
<line x1="76" y1="45.0" x2="80" y2="45.0" stroke="#222"/>
<text x="72" y="49.0" text-anchor="end" font-family="sans-serif" font-size="11">140</text>
<line x1="115.9" y1="440" x2="115.9" y2="444" stroke="#222"/>
<text x="115.9" y="462" text-anchor="middle" font-family="sans-serif" font-size="11">1000000</text>
<line x1="187.7" y1="440" x2="187.7" y2="444" stroke="#222"/>
<text x="187.7" y="462" text-anchor="middle" font-family="sans-serif" font-size="11">3000000</text>
<line x1="259.5" y1="440" x2="259.5" y2="444" stroke="#222"/>
<text x="259.5" y="462" text-anchor="middle" font-family="sans-serif" font-size="11">5000000</text>
<line x1="331.4" y1="440" x2="331.4" y2="444" stroke="#222"/>
<text x="331.4" y="462" text-anchor="middle" font-family="sans-serif" font-size="11">7000000</text>
<line x1="403.2" y1="440" x2="403.2" y2="444" stroke="#222"/>
<text x="403.2" y="462" text-anchor="middle" font-family="sans-serif" font-size="11">10000000</text>
<line x1="475.0" y1="440" x2="475.0" y2="444" stroke="#222"/>
<text x="475.0" y="462" text-anchor="middle" font-family="sans-serif" font-size="11">15000000</text>
<line x1="546.8" y1="440" x2="546.8" y2="444" stroke="#222"/>
<text x="546.8" y="462" text-anchor="middle" font-family="sans-serif" font-size="11">20000000</text>
<line x1="618.6" y1="440" x2="618.6" y2="444" stroke="#222"/>
<text x="618.6" y="462" text-anchor="middle" font-family="sans-serif" font-size="11">25000000</text>
<line x1="690.5" y1="440" x2="690.5" y2="444" stroke="#222"/>
<text x="690.5" y="462" text-anchor="middle" font-family="sans-serif" font-size="11">30000000</text>
<line x1="762.3" y1="440" x2="762.3" y2="444" stroke="#222"/>
<text x="762.3" y="462" text-anchor="middle" font-family="sans-serif" font-size="11">40000000</text>
<line x1="834.1" y1="440" x2="834.1" y2="444" stroke="#222"/>
<text x="834.1" y="462" text-anchor="middle" font-family="sans-serif" font-size="11">50000000</text>
<rect x="90.8" y="398.8" width="9.1" height="41.2" fill="#1f77b4"/>
<rect x="162.6" y="373.1" width="9.1" height="66.9" fill="#1f77b4"/>
<rect x="234.4" y="364.2" width="9.1" height="75.8" fill="#1f77b4"/>
<rect x="306.2" y="397.5" width="9.1" height="42.5" fill="#1f77b4"/>
<rect x="378.0" y="418.5" width="9.1" height="21.5" fill="#1f77b4"/>
<rect x="449.9" y="417.5" width="9.1" height="22.5" fill="#1f77b4"/>
<rect x="521.7" y="416.9" width="9.1" height="23.1" fill="#1f77b4"/>
<rect x="593.5" y="411.9" width="9.1" height="28.1" fill="#1f77b4"/>
<rect x="665.3" y="415.1" width="9.1" height="24.9" fill="#1f77b4"/>
<rect x="737.1" y="411.8" width="9.1" height="28.2" fill="#1f77b4"/>
<rect x="809.0" y="409.1" width="9.1" height="30.9" fill="#1f77b4"/>
<rect x="90" y="53" width="12" height="12" fill="#1f77b4"/>
<text x="108" y="63" font-family="sans-serif" font-size="12">fanout_f32_l16:candidate fetch</text>
<rect x="100.8" y="166.5" width="9.1" height="273.5" fill="#d62728"/>
<rect x="172.6" y="160.9" width="9.1" height="279.1" fill="#d62728"/>
<rect x="244.5" y="206.6" width="9.1" height="233.4" fill="#d62728"/>
<rect x="316.3" y="154.4" width="9.1" height="285.6" fill="#d62728"/>
<rect x="388.1" y="134.2" width="9.1" height="305.8" fill="#d62728"/>
<rect x="459.9" y="120.9" width="9.1" height="319.1" fill="#d62728"/>
<rect x="531.7" y="125.2" width="9.1" height="314.8" fill="#d62728"/>
<rect x="603.6" y="80.9" width="9.1" height="359.1" fill="#d62728"/>
<rect x="675.4" y="126.2" width="9.1" height="313.8" fill="#d62728"/>
<rect x="747.2" y="111.0" width="9.1" height="329.0" fill="#d62728"/>
<rect x="819.0" y="98.2" width="9.1" height="341.8" fill="#d62728"/>
<rect x="90" y="71" width="12" height="12" fill="#d62728"/>
<text x="108" y="81" font-family="sans-serif" font-size="12">fanout_f32_l16:localisation</text>
<rect x="110.9" y="346.9" width="9.1" height="93.1" fill="#2ca02c"/>
<rect x="182.7" y="363.0" width="9.1" height="77.0" fill="#2ca02c"/>
<rect x="254.5" y="394.0" width="9.1" height="46.0" fill="#2ca02c"/>
<rect x="326.3" y="400.9" width="9.1" height="39.1" fill="#2ca02c"/>
<rect x="398.2" y="400.0" width="9.1" height="40.0" fill="#2ca02c"/>
<rect x="470.0" y="398.6" width="9.1" height="41.4" fill="#2ca02c"/>
<rect x="541.8" y="398.4" width="9.1" height="41.6" fill="#2ca02c"/>
<rect x="613.6" y="380.7" width="9.1" height="59.3" fill="#2ca02c"/>
<rect x="685.4" y="398.1" width="9.1" height="41.9" fill="#2ca02c"/>
<rect x="757.2" y="396.5" width="9.1" height="43.5" fill="#2ca02c"/>
<rect x="829.1" y="400.8" width="9.1" height="39.2" fill="#2ca02c"/>
<rect x="90" y="89" width="12" height="12" fill="#2ca02c"/>
<text x="108" y="99" font-family="sans-serif" font-size="12">fanout_f32_l16:repair write</text>
<rect x="120.9" y="438.5" width="9.1" height="1.5" fill="#9467bd"/>
<rect x="192.8" y="437.5" width="9.1" height="2.5" fill="#9467bd"/>
<rect x="264.6" y="437.3" width="9.1" height="2.7" fill="#9467bd"/>
<rect x="336.4" y="438.4" width="9.1" height="1.6" fill="#9467bd"/>
<rect x="408.2" y="439.4" width="9.1" height="0.6" fill="#9467bd"/>
<rect x="480.0" y="439.4" width="9.1" height="0.6" fill="#9467bd"/>
<rect x="551.8" y="439.3" width="9.1" height="0.7" fill="#9467bd"/>
<rect x="623.7" y="438.9" width="9.1" height="1.1" fill="#9467bd"/>
<rect x="695.5" y="439.2" width="9.1" height="0.8" fill="#9467bd"/>
<rect x="767.3" y="439.1" width="9.1" height="0.9" fill="#9467bd"/>
<rect x="839.1" y="439.0" width="9.1" height="1.0" fill="#9467bd"/>
<rect x="90" y="107" width="12" height="12" fill="#9467bd"/>
<text x="108" y="117" font-family="sans-serif" font-size="12">fanout_f32_l16:row compare</text>
<rect x="131.0" y="429.8" width="9.1" height="10.2" fill="#ff7f0e"/>
<rect x="202.8" y="430.4" width="9.1" height="9.6" fill="#ff7f0e"/>
<rect x="274.6" y="432.9" width="9.1" height="7.1" fill="#ff7f0e"/>
<rect x="346.4" y="435.2" width="9.1" height="4.8" fill="#ff7f0e"/>
<rect x="418.3" y="435.3" width="9.1" height="4.7" fill="#ff7f0e"/>
<rect x="490.1" y="435.0" width="9.1" height="5.0" fill="#ff7f0e"/>
<rect x="561.9" y="435.2" width="9.1" height="4.8" fill="#ff7f0e"/>
<rect x="633.7" y="433.4" width="9.1" height="6.6" fill="#ff7f0e"/>
<rect x="705.5" y="435.2" width="9.1" height="4.8" fill="#ff7f0e"/>
<rect x="777.4" y="435.0" width="9.1" height="5.0" fill="#ff7f0e"/>
<rect x="849.2" y="435.5" width="9.1" height="4.5" fill="#ff7f0e"/>
<rect x="90" y="125" width="12" height="12" fill="#ff7f0e"/>
<text x="108" y="135" font-family="sans-serif" font-size="12">fanout_f32_l16:targeted confirmation</text>
</svg>
